<?xml version="1.0" encoding="UTF-8"?>
<svg version="1.1" xmlns="http://www.w3.org/2000/svg" width="800" height="800">
<path d="M0 0 C0.67836914 0.35320312 1.35673828 0.70640625 2.05566406 1.0703125 C20.29069108 10.59147677 37.32436492 22.22538278 53.09375 35.42626953 C54.51121773 36.59647919 55.94646219 37.74522299 57.390625 38.88232422 C64.69097688 44.68567891 71.30619193 50.99771835 77.87109375 57.61035156 C79.62281575 59.37280238 81.38499428 61.12428568 83.1484375 62.875 C89.89141301 69.60981081 96.09324984 76.51198754 102 84 C102.98758258 85.18614091 103.97917593 86.36896598 104.9765625 87.546875 C125.40869752 112.06997834 140.94518929 140.56584956 153 170 C153.38027344 170.92586914 153.76054688 171.85173828 154.15234375 172.80566406 C162.48219942 193.31163439 167.94104395 214.26579368 172 236 C172.23396484 237.23339111 172.23396484 237.23339111 172.47265625 238.49169922 C174.5455102 249.71732385 175.46766821 260.99552109 176.1875 272.375 C176.23047211 273.04732666 176.27344421 273.71965332 176.31771851 274.41235352 C180.17053033 336.21610464 167.12382846 397.30881059 138 452 C137.64679687 452.67836914 137.29359375 453.35673828 136.9296875 454.05566406 C127.40852323 472.29069108 115.77461722 489.32436492 102.57373047 505.09375 C101.40352081 506.51121773 100.25477701 507.94646219 99.11767578 509.390625 C93.31432109 516.69097688 87.00228165 523.30619193 80.38964844 529.87109375 C78.62719762 531.62281575 76.87571432 533.38499428 75.125 535.1484375 C68.39018919 541.89141301 61.48801246 548.09324984 54 554 C52.81385909 554.98758258 51.63103402 555.97917593 50.453125 556.9765625 C25.93002166 577.40869752 -2.56584956 592.94518929 -32 605 C-33.38880371 605.57041016 -33.38880371 605.57041016 -34.80566406 606.15234375 C-55.31163439 614.48219942 -76.26579368 619.94104395 -98 624 C-99.23339111 624.23396484 -99.23339111 624.23396484 -100.49169922 624.47265625 C-111.71732385 626.5455102 -122.99552109 627.46766821 -134.375 628.1875 C-135.04732666 628.23047211 -135.71965332 628.27344421 -136.41235352 628.31771851 C-198.21610464 632.17053033 -259.30881059 619.12382846 -314 590 C-314.67836914 589.64679687 -315.35673828 589.29359375 -316.05566406 588.9296875 C-334.29069108 579.40852323 -351.32436492 567.77461722 -367.09375 554.57373047 C-368.51121773 553.40352081 -369.94646219 552.25477701 -371.390625 551.11767578 C-378.69097688 545.31432109 -385.30619193 539.00228165 -391.87109375 532.38964844 C-393.62281575 530.62719762 -395.38499428 528.87571432 -397.1484375 527.125 C-403.89141301 520.39018919 -410.09324984 513.48801246 -416 506 C-416.98758258 504.81385909 -417.97917593 503.63103402 -418.9765625 502.453125 C-439.40869752 477.93002166 -454.94518929 449.43415044 -467 420 C-467.38027344 419.07413086 -467.76054687 418.14826172 -468.15234375 417.19433594 C-476.48219942 396.68836561 -481.94104395 375.73420632 -486 354 C-486.15597656 353.17773926 -486.31195313 352.35547852 -486.47265625 351.50830078 C-488.5455102 340.28267615 -489.46766821 329.00447891 -490.1875 317.625 C-490.23047211 316.95267334 -490.27344421 316.28034668 -490.31771851 315.58764648 C-494.17053033 253.78389536 -481.12382846 192.69118941 -452 138 C-451.47019531 136.98244629 -451.47019531 136.98244629 -450.9296875 135.94433594 C-441.40852323 117.70930892 -429.77461722 100.67563508 -416.57373047 84.90625 C-415.40352081 83.48878227 -414.25477701 82.05353781 -413.11767578 80.609375 C-407.31432109 73.30902312 -401.00228165 66.69380807 -394.38964844 60.12890625 C-392.62719762 58.37718425 -390.87571432 56.61500572 -389.125 54.8515625 C-382.39018919 48.10858699 -375.48801246 41.90675016 -368 36 C-366.81385909 35.01241742 -365.63103402 34.02082407 -364.453125 33.0234375 C-339.93002166 12.59130248 -311.43415044 -2.94518929 -282 -15 C-281.07413086 -15.38027344 -280.14826172 -15.76054688 -279.19433594 -16.15234375 C-258.68836561 -24.48219942 -237.73420632 -29.94104395 -216 -34 C-215.17773926 -34.15597656 -214.35547852 -34.31195313 -213.50830078 -34.47265625 C-202.28267615 -36.5455102 -191.00447891 -37.46766821 -179.625 -38.1875 C-178.95267334 -38.23047211 -178.28034668 -38.27344421 -177.58764648 -38.31771851 C-115.78389536 -42.17053033 -54.69118941 -29.12382846 0 0 Z M-354.8125 116.0625 C-402.86482795 169.97835607 -426.09504091 239.15916631 -423 311 C-418.71511661 381.84340537 -385.96242517 448.22795131 -332.9921875 495.4375 C-277.33542056 543.10178083 -206.60006653 566.03012871 -133.59375 560.49609375 C-62.80040939 554.16266468 3.02388028 519.42202152 48.625 464.8828125 C93.94072971 409.52543498 114.52816375 339.01858128 108.17602539 268.01611328 C100.93351708 197.96466623 65.80554321 132.69771989 11.25024414 88.03857422 C-68.93417568 23.84928169 -180.76902439 10.27188628 -354.8125 116.0625 Z " fill="#FFFFFF" transform="translate(557,105)"/>
<path d="M0 0 C2.96155234 2.0872374 5.49310285 4.39031435 8 7 C8.49371094 7.49628906 8.98742187 7.99257812 9.49609375 8.50390625 C16.83690678 16.49820412 17.15322735 26.75028261 17.11352539 37.04443359 C17.11367142 38.04017395 17.11381744 39.03591431 17.1139679 40.06182861 C17.11327333 43.34072069 17.10550227 46.61955539 17.09765625 49.8984375 C17.09579045 52.17672698 17.09436731 54.45501686 17.09336853 56.73330688 C17.08955611 62.72065342 17.0797367 68.70797558 17.06866455 74.6953125 C17.05842303 80.8085904 17.05386504 86.92187224 17.04882812 93.03515625 C17.03811329 105.02344819 17.02105217 117.01172207 17 129 C18.25121643 128.99333817 19.50243286 128.98667633 20.79156494 128.97981262 C32.61957992 128.91883033 44.44756273 128.87394537 56.27569962 128.84456348 C62.35574173 128.82894986 68.43565628 128.80779043 74.515625 128.77368164 C80.39006544 128.74093448 86.26438366 128.72311466 92.13890839 128.71536827 C94.37304354 128.70985225 96.60717248 128.69908123 98.84125519 128.68280983 C128.97508279 128.4721918 128.97508279 128.4721918 141.125 139.6875 C147.35411867 146.059543 150.08941271 153.74468118 150.3125 162.5625 C150.19711588 172.03553606 147.36752315 179.45123393 140.78515625 186.28515625 C140.19605469 186.85105469 139.60695313 187.41695312 139 188 C138.25556641 188.74056641 138.25556641 188.74056641 137.49609375 189.49609375 C129.50179588 196.83690678 119.24971739 197.15322735 108.95556641 197.11352539 C107.95982605 197.11367142 106.96408569 197.11381744 105.93817139 197.1139679 C102.65927931 197.11327333 99.38044461 197.10550227 96.1015625 197.09765625 C93.82327302 197.09579045 91.54498314 197.09436731 89.26669312 197.09336853 C83.27934658 197.08955611 77.29202442 197.0797367 71.3046875 197.06866455 C65.1914096 197.05842303 59.07812776 197.05386504 52.96484375 197.04882812 C40.97655181 197.03811329 28.98827793 197.02105217 17 197 C17.00999275 198.87682465 17.00999275 198.87682465 17.02018738 200.79156494 C17.08116967 212.61957992 17.12605463 224.44756273 17.15543652 236.27569962 C17.17105014 242.35574173 17.19220957 248.43565628 17.22631836 254.515625 C17.25906552 260.39006544 17.27688534 266.26438366 17.28463173 272.13890839 C17.29014775 274.37304354 17.30091877 276.60717248 17.31719017 278.84125519 C17.5278082 308.97508279 17.5278082 308.97508279 6.3125 321.125 C-0.059543 327.35411867 -7.74468118 330.08941271 -16.5625 330.3125 C-26.03553606 330.19711588 -33.45123393 327.36752315 -40.28515625 320.78515625 C-40.85105469 320.19605469 -41.41695312 319.60695313 -42 319 C-42.74056641 318.25556641 -42.74056641 318.25556641 -43.49609375 317.49609375 C-50.83690678 309.50179588 -51.15322735 299.24971739 -51.11352539 288.95556641 C-51.11367142 287.95982605 -51.11381744 286.96408569 -51.1139679 285.93817139 C-51.11327333 282.65927931 -51.10550227 279.38044461 -51.09765625 276.1015625 C-51.09579045 273.82327302 -51.09436731 271.54498314 -51.09336853 269.26669312 C-51.08955611 263.27934658 -51.0797367 257.29202442 -51.06866455 251.3046875 C-51.05842303 245.1914096 -51.05386504 239.07812776 -51.04882812 232.96484375 C-51.03811329 220.97655181 -51.02105217 208.98827793 -51 197 C-52.25121643 197.00666183 -53.50243286 197.01332367 -54.79156494 197.02018738 C-66.61957992 197.08116967 -78.44756273 197.12605463 -90.27569962 197.15543652 C-96.35574173 197.17105014 -102.43565628 197.19220957 -108.515625 197.22631836 C-114.39006544 197.25906552 -120.26438366 197.27688534 -126.13890839 197.28463173 C-128.37304354 197.29014775 -130.60717248 197.30091877 -132.84125519 197.31719017 C-162.97508279 197.5278082 -162.97508279 197.5278082 -175.125 186.3125 C-181.35411867 179.940457 -184.08941271 172.25531882 -184.3125 163.4375 C-184.19711588 153.96446394 -181.36752315 146.54876607 -174.78515625 139.71484375 C-174.19605469 139.14894531 -173.60695312 138.58304688 -173 138 C-172.50371094 137.50628906 -172.00742188 137.01257813 -171.49609375 136.50390625 C-163.50179588 129.16309322 -153.24971739 128.84677265 -142.95556641 128.88647461 C-141.95982605 128.88632858 -140.96408569 128.88618256 -139.93817139 128.8860321 C-136.65927931 128.88672667 -133.38044461 128.89449773 -130.1015625 128.90234375 C-127.82327302 128.90420955 -125.54498314 128.90563269 -123.26669312 128.90663147 C-117.27934658 128.91044389 -111.29202442 128.9202633 -105.3046875 128.93133545 C-99.1914096 128.94157697 -93.07812776 128.94613496 -86.96484375 128.95117188 C-74.97655181 128.96188671 -62.98827793 128.97894783 -51 129 C-51.00666183 127.74878357 -51.01332367 126.49756714 -51.02018738 125.20843506 C-51.08116967 113.38042008 -51.12605463 101.55243727 -51.15543652 89.72430038 C-51.17105014 83.64425827 -51.19220957 77.56434372 -51.22631836 71.484375 C-51.25906552 65.60993456 -51.27688534 59.73561634 -51.28463173 53.86109161 C-51.29014775 51.62695646 -51.30091877 49.39282752 -51.31719017 47.15874481 C-51.5278082 17.02491721 -51.5278082 17.02491721 -40.3125 4.875 C-29.48476973 -5.70986529 -13.18640809 -6.91779255 0 0 Z " fill="#FFFFFF" transform="translate(417,237)"/>
</svg>
